<mxfile host="app.diagrams.net" modified="2024-04-06T07:26:16.144Z" agent="Mozilla/5.0 (Windows NT 10.0; Win64; x64) AppleWebKit/537.36 (KHTML, like Gecko) Chrome/122.0.0.0 Safari/537.36 OPR/108.0.0.0" version="24.2.2" etag="bXdJg92IBmpJJY1Wbjh9" type="github">
  <diagram name="Page-1" id="gWiIlB54i0UAbzuNKbdG">
    <mxGraphModel>
      <root>
        <mxCell id="0" />
        <mxCell id="1" parent="0" />
      </root>
    </mxGraphModel>
  </diagram>
</mxfile>
